<?xml version="1.0" encoding="UTF-8"?>
<svg width="130px" height="31px" viewBox="0 0 130 31" version="1.1" xmlns="http://www.w3.org/2000/svg" xmlns:xlink="http://www.w3.org/1999/xlink">
    <!-- Generator: Sketch 49.3 (51167) - http://www.bohemiancoding.com/sketch -->
    <title>apple-music</title>
    <desc>Created with Sketch.</desc>
    <defs></defs>
    <g id="Page-1" stroke="none" stroke-width="1" fill="none" fill-rule="evenodd">
        <g id="Desktop-HD-Copy-6" transform="translate(-1025.000000, -657.000000)" fill="#FFFFFF" fill-rule="nonzero">
            <g id="apple-music" transform="translate(1025.000000, 657.000000)">
                <path d="M20.5082927,16.4313791 C20.4670732,13.9092832 21.5534451,11.9459751 23.7650305,10.5406597 C22.5177439,8.72201638 20.6783232,7.69982436 18.2459756,7.47130165 C17.3807622,7.38982834 16.2745732,7.59490263 14.9289939,8.09169113 C13.4815549,8.62981244 12.6666768,8.89728337 12.4859451,8.89728337 C12.103872,8.89728337 11.3702439,8.67114524 10.2830793,8.21529211 C9.19829268,7.76063127 8.27283537,7.53330086 7.50868902,7.53330086 C6.22216463,7.55436469 5.02521341,7.91086012 3.91981707,8.60278714 C2.81402439,9.29550903 1.92978659,10.2417918 1.26670732,11.4392508 C0.421310976,12.9280266 0,14.7057345 0,16.7719773 C0,18.6319534 0.310731707,20.4915322 0.933780488,22.3527006 C1.51679878,24.1304086 2.26192073,25.6907219 3.16557927,27.0328457 C3.96896341,28.2525609 4.6752439,29.1412161 5.2764939,29.7000038 C6.14210366,30.5675953 7.02554878,30.9817182 7.93158537,30.9395905 C8.51420732,30.9181293 9.27756098,30.7015295 10.2228354,30.2870091 C11.1066768,29.8963347 11.9921037,29.6996064 12.8771341,29.6996064 C13.701128,29.6996064 14.5548476,29.8951424 15.4406707,30.2870091 C16.4251829,30.7015295 17.2301524,30.9077961 17.8532012,30.9077961 C18.7782622,30.8672581 19.6422866,30.4638658 20.4476524,29.7000038 C20.7278659,29.4508147 21.0350305,29.1102165 21.366372,28.6762221 C21.7488854,28.1707188 22.1161948,27.6538264 22.4678049,27.126242 C22.7607907,26.6712979 23.0374813,26.2060073 23.2973476,25.7312599 C23.5761194,25.2200302 23.8228575,24.6918814 24.036128,24.1498827 C24.1356098,23.9225523 24.2259756,23.6904527 24.3072256,23.4527891 C24.3872866,23.2151254 24.4677439,22.9730901 24.5482012,22.7246958 C23.8042683,22.3948283 23.1304878,21.9278471 22.5276524,21.328124 C21.2022866,20.0074614 20.5285061,18.3740208 20.5082927,16.4313791 Z M42.3772256,21.9580518 L42.2309756,21.9580518 L36.106311,7.92318047 L31.2967073,7.92318047 L31.2967073,30.5675953 L35.4884146,30.5675953 L35.4884146,15.9020013 L35.6830183,15.9020013 L40.801372,27.5475186 L43.7410366,27.5475186 L48.8431402,15.9020013 L49.0385366,15.9020013 L49.0385366,30.5675953 L53.2785976,30.5675953 L53.2785976,7.92318047 L48.5018902,7.92318047 L42.3772256,21.9580518 Z M16.707378,4.96073127 C17.7735366,3.61701773 18.3066159,2.17036961 18.3066159,0.619992051 L18.3066159,0.310393456 C18.3066159,0.206266586 18.296311,0.103332009 18.2764939,0 C17.5321646,0.0413328034 16.7434451,0.279393854 15.9083537,0.712593428 C15.0744512,1.14738273 14.3860061,1.69583723 13.8422256,2.3559698 C12.7570427,3.6591454 12.2136585,5.05333265 12.2136585,6.541711 L12.2136585,6.83541237 C12.2136585,6.92920604 12.2239634,7.02697401 12.2437805,7.13110088 C13.9131707,7.29603467 15.4010366,6.57231318 16.707378,4.96073127 Z M102.269573,7.92318047 L106.980884,7.92318047 L106.980884,30.5679927 L102.269573,30.5679927 L102.269573,7.92318047 Z M121.210335,11.5227112 C124.004543,11.5227112 125.482104,13.6795682 125.482104,16.0021538 L130,16.0021538 L130,15.5208651 C130,11.1415751 126.669146,7.49236548 121.177439,7.49236548 C115.295732,7.49236548 111.786921,11.3740721 111.786921,17.9936796 L111.786921,20.5487622 C111.786921,27.1663825 115.263232,31 121.160793,31 C126.79875,31 130,27.2991244 130,23.1857156 L130,22.6881322 L125.4825,22.6881322 C125.4825,25.0282048 124.037043,26.9688594 121.243628,26.9688594 C118.383232,26.9688594 116.563232,24.9280522 116.563232,20.564262 L116.563232,18.0111665 C116.563232,13.6624787 118.399878,11.5227112 121.210335,11.5227112 Z M71.2978659,22.2227407 C71.2978659,25.2595095 69.5270122,26.9342829 66.9278049,26.9342829 C64.3119512,26.9342829 62.5414939,25.2754067 62.5414939,22.2227407 L62.5414939,7.92318047 L57.8618902,7.92318047 L57.8618902,22.8864502 C57.8618902,27.7152344 61.2732012,30.9996026 66.9270122,30.9996026 C72.5649695,30.9996026 75.9925305,27.7152344 75.9925305,22.8864502 L75.9925305,7.92318047 L71.2978659,7.92318047 L71.2978659,22.2227407 Z M91.5802439,17.3792515 L88.2176829,16.6169793 C86.2359756,16.2008692 85.1959756,15.3221497 85.1959756,14.0110255 C85.1959756,12.2698812 86.6089329,11.1745619 88.8847256,11.1745619 C91.4514329,11.1745619 92.7347866,12.6510173 92.8481402,14.2439199 L97.2348476,14.2439199 C97.1860976,10.2453686 93.8560366,7.45858386 88.9001829,7.45858386 C84.2055183,7.45858386 80.5009146,9.93100088 80.5009146,14.3766618 C80.5009146,18.2253817 83.1009146,20.0158075 86.220122,20.6977987 L89.5501829,21.4767631 C91.7922866,21.9910386 92.9293902,22.7382085 92.9293902,24.2798426 C92.9293902,26.0396662 91.5318902,27.2343431 88.9168293,27.2343431 C86.1059756,27.2343431 84.6272256,25.7407982 84.4980183,24.0648325 L79.9809146,24.0648325 C80.0471037,27.2669325 82.158811,30.9996026 88.690122,30.9996026 C94.1810366,30.9996026 97.5772866,28.2624966 97.5772866,23.8148485 C97.5757012,19.7006449 94.8298476,18.0914475 91.5802439,17.3792515 Z" id="Shape"></path>
            </g>
        </g>
    </g>
</svg>