<?xml version="1.0" encoding="UTF-8"?>
<svg width="48px" height="48px" viewBox="0 0 48 48" version="1.1" xmlns="http://www.w3.org/2000/svg" xmlns:xlink="http://www.w3.org/1999/xlink">
    <!-- Generator: Sketch 54.1 (76490) - https://sketchapp.com -->
    <title>Shape</title>
    <desc>Created with Sketch.</desc>
    <g id="Page-1" stroke="none" stroke-width="1" fill="none" fill-rule="evenodd">
        <path d="M38.15625,0 L9.84375,0 C4.41590625,0 0,4.41590625 0,9.84375 L0,38.15625 C0,43.5840938 4.41590625,48 9.84375,48 L38.15625,48 C43.5840938,48 48,43.5840938 48,38.15625 L48,9.84375 C48,4.41590625 43.5840938,0 38.15625,0 Z M14.7795938,36.9857813 C14.346,37.7368125 13.5565313,38.1570938 12.745875,38.1571875 C12.3484687,38.1571875 11.9460937,38.0562187 11.5779375,37.8436875 C10.45875,37.1975625 10.0739062,35.7613125 10.7200312,34.642125 L11.181,33.84375 L16.5936562,33.84375 L14.7795938,36.9857813 Z M10.359375,31.96875 C9.06703125,31.96875 8.015625,30.9173437 8.015625,29.625 C8.015625,28.3326562 9.06703125,27.28125 10.359375,27.28125 L14.9698125,27.28125 L21.293625,16.3280625 L19.5797813,13.3595625 C18.9336563,12.240375 19.3184063,10.804125 20.4375938,10.1579062 L20.4376875,10.1579062 C21.556875,9.51178125 22.993125,9.89671875 23.63925,11.0158125 L24,11.6406562 L24.36075,11.0159062 C25.0071563,9.896625 26.4434063,9.511875 27.5623125,10.158 C28.1044688,10.4710312 28.4923125,10.9764375 28.6543125,11.581125 C28.8164063,12.1858125 28.7331563,12.8175 28.420125,13.3596562 L20.3824688,27.28125 L25.452375,27.28125 L28.15875,31.96875 L10.359375,31.96875 Z M37.640625,31.96875 L35.7364688,31.96875 L37.279875,34.6420313 C37.9260937,35.761125 37.54125,37.197375 36.4221563,37.8435937 C36.0609375,38.0520937 35.6600625,38.1586875 35.2539375,38.1586875 C35.0503125,38.1586875 34.8455625,38.1319687 34.6435312,38.0777813 C34.03875,37.9156875 33.5333438,37.5278437 33.2203125,36.9855937 L25.0824375,22.8904687 L27.7887188,18.2029687 L33.0301875,27.28125 L37.640625,27.28125 C38.9329688,27.28125 39.984375,28.3326562 39.984375,29.625 C39.984375,30.9173438 38.9329688,31.96875 37.640625,31.96875 Z" id="Shape" fill="#434343" fill-rule="nonzero"></path>
    </g>
</svg>