<?xml version="1.0" encoding="utf-8"?>
<!-- Generator: Adobe Illustrator 22.1.0, SVG Export Plug-In . SVG Version: 6.00 Build 0)  -->
<svg version="1.1" id="Layer_1" xmlns="http://www.w3.org/2000/svg" xmlns:xlink="http://www.w3.org/1999/xlink" x="0px" y="0px"
	 viewBox="0 0 48 30" style="enable-background:new 0 0 48 30;" xml:space="preserve">
<style type="text/css">
	.st0{fill:#464646;}
</style>
<title>Behance-color</title>
<desc>Created with Sketch.</desc>
<g id="Page-1">
	<g id="Desktop-HD-Copy-6" transform="translate(-880.000000, -659.000000)">
		<path id="Behance" class="st0" d="M910.7,664h12.7v-3.6h-12.7V664L910.7,664z M913.7,672c-0.8,0.8-1.3,1.9-1.5,3.3h9.9
			c-0.1-1.5-0.6-2.6-1.5-3.4c-0.9-0.8-2.1-1.2-3.4-1.2C915.6,670.7,914.5,671.1,913.7,672L913.7,672L913.7,672z M922.3,667.1
			c1.5,0.7,2.8,1.7,3.8,3.2c0.9,1.3,1.5,2.8,1.8,4.5c0.2,1,0.2,2.4,0.2,4.3h-16c0.1,2.2,0.9,3.7,2.3,4.6c0.9,0.5,1.9,0.8,3.2,0.8
			c1.3,0,2.4-0.3,3.2-1c0.4-0.4,0.8-0.9,1.2-1.5h5.9c-0.2,1.3-0.9,2.6-2.1,3.9c-2,2.1-4.7,3.2-8.3,3.2c-2.9,0-5.5-0.9-7.7-2.7
			c-2.2-1.8-3.3-4.7-3.3-8.7c0-3.8,1-6.6,3-8.6c2-2,4.6-3,7.8-3C919,666,920.7,666.4,922.3,667.1L922.3,667.1L922.3,667.1z
			 M885.9,675.4v7.8h7.2c1.3,0,2.3-0.2,3-0.5c1.3-0.6,2-1.9,2-3.7c0-1.5-0.6-2.6-1.9-3.1c-0.7-0.3-1.7-0.5-3-0.5H885.9L885.9,675.4z
			 M885.9,664.1v6.5h7.2c1.3,0,2.3-0.2,3.1-0.7c0.8-0.5,1.2-1.3,1.2-2.6c0-1.4-0.5-2.3-1.6-2.7c-0.9-0.3-2.1-0.5-3.5-0.5H885.9
			L885.9,664.1z M902,662.1c0.9,1.2,1.4,2.7,1.4,4.5c0,1.8-0.5,3.2-1.4,4.3c-0.5,0.6-1.3,1.2-2.3,1.7c1.5,0.5,2.7,1.4,3.4,2.6
			c0.8,1.2,1.2,2.6,1.2,4.3c0,1.7-0.4,3.3-1.3,4.7c-0.6,0.9-1.3,1.7-2.1,2.3c-0.9,0.7-2.1,1.2-3.3,1.5c-1.3,0.3-2.7,0.4-4.2,0.4H880
			V659h14.3C898,659.1,900.5,660.1,902,662.1L902,662.1L902,662.1z"/>
	</g>
</g>
</svg>
