<?xml version="1.0" encoding="UTF-8"?>
<svg width="44px" height="44px" viewBox="0 0 44 44" version="1.1" xmlns="http://www.w3.org/2000/svg" xmlns:xlink="http://www.w3.org/1999/xlink">
    <!-- Generator: Sketch 51.2 (57519) - http://www.bohemiancoding.com/sketch -->
    <title>dribbble</title>
    <desc>Created with Sketch.</desc>
    <defs></defs>
    <g id="Mobile" stroke="none" stroke-width="1" fill="none" fill-rule="evenodd">
        <g id="dribbble" fill="#464646" fill-rule="nonzero">
            <path d="M32.5,37.6 C32.3,36.5 31.3,31 28.8,24.2 C34.9,23.2 40.1,24.9 40.5,25 C39.7,30.2 36.7,34.7 32.5,37.6 Z M22,40.8 C17.5,40.8 13.3,39.2 10,36.5 C10.2,36.7 10.4,36.8 10.4,36.8 C10.4,36.8 14,28.9 25.1,25.1 C25.1,25.1 25.2,25.1 25.2,25.1 C27.8,32 28.9,37.7 29.2,39.4 C27.1,40.3 24.6,40.8 22,40.8 Z M3.2,22 C3.2,21.8 3.2,21.6 3.2,21.4 C3.5,21.4 12.8,21.6 22.5,18.7 C23,19.8 23.6,20.8 24,21.9 C23.8,22 23.5,22 23.3,22.1 C13.2,25.4 8,34.5 8,34.5 C8,34.5 8,34.5 8,34.5 C5,31.2 3.2,26.8 3.2,22 Z M14,5 C14.3,5.3 17.7,10 21,15.8 C12,18.2 4.1,18.1 3.7,18.1 C4.8,12.3 8.7,7.5 14,5 Z M34.4,7.9 C34.4,8 31.7,12 24.6,14.7 C21.4,8.8 17.9,4.1 17.6,3.7 C19,3.4 20.5,3.2 22,3.2 C26.8,3.2 31.1,5 34.4,7.9 Z M40.8,21.8 C40.5,21.7 34.2,20.4 27.7,21.2 C27.6,20.9 27.4,20.6 27.3,20.2 C26.9,19.3 26.5,18.4 26.1,17.5 C33.5,14.5 36.5,10.1 36.6,10.1 C39.1,13.3 40.7,17.4 40.8,21.8 Z M43.6,17.6 C43.3,16.2 42.9,14.8 42.3,13.5 C41.8,12.2 41.1,10.9 40.3,9.8 C39.5,8.6 38.6,7.5 37.6,6.5 C36.6,5.5 35.5,4.6 34.3,3.8 C33.1,3 31.9,2.3 30.6,1.8 C29.3,1.2 27.9,0.8 26.5,0.5 C25.1,0.2 23.6,0 22.1,0 C20.6,0 19.1,0.2 17.7,0.5 C16.3,0.8 14.9,1.2 13.6,1.8 C12.3,2.4 11,3 9.9,3.8 C8.7,4.6 7.6,5.5 6.6,6.5 C5.6,7.5 4.7,8.6 3.9,9.8 C3.1,11 2.4,12.2 1.9,13.5 C1.3,14.8 0.9,16.2 0.6,17.6 C0.3,19 0.2,20.5 0.2,22 C0.2,23.5 0.4,25 0.6,26.4 C0.9,27.8 1.3,29.2 1.9,30.5 C2.4,31.8 3.1,33.1 3.9,34.2 C4.7,35.4 5.6,36.5 6.6,37.5 C7.6,38.5 8.7,39.4 9.9,40.2 C11.1,41 12.3,41.7 13.6,42.2 C14.9,42.8 16.3,43.2 17.7,43.5 C19.1,43.8 20.6,44 22.1,44 C23.6,44 25.1,43.8 26.5,43.5 C27.9,43.2 29.3,42.8 30.6,42.2 C31.9,41.6 33.2,41 34.3,40.2 C35.5,39.4 36.6,38.5 37.6,37.5 C38.6,36.5 39.5,35.4 40.3,34.2 C41.1,33 41.8,31.8 42.3,30.5 C42.9,29.2 43.3,27.8 43.6,26.4 C43.9,25 44,23.5 44,22 C44,20.5 43.8,19 43.6,17.6 Z" id="Dribbble"></path>
        </g>
    </g>
</svg>