<?xml version="1.0" encoding="UTF-8"?>
<svg width="44px" height="44px" viewBox="0 0 44 44" version="1.1" xmlns="http://www.w3.org/2000/svg" xmlns:xlink="http://www.w3.org/1999/xlink">
    <!-- Generator: Sketch 51.2 (57519) - http://www.bohemiancoding.com/sketch -->
    <title>fb</title>
    <desc>Created with Sketch.</desc>
    <defs></defs>
    <g id="Mobile" stroke="none" stroke-width="1" fill="none" fill-rule="evenodd">
        <g id="fb" fill="#464646" fill-rule="nonzero">
            <path d="M23.4666667,44 L2.40952381,44 C1.04761905,44 -5.68434189e-14,42.952381 -5.68434189e-14,41.5904762 L-5.68434189e-14,2.40952381 C-5.68434189e-14,1.04761905 1.04761905,1.13686838e-13 2.40952381,1.13686838e-13 L41.5904762,1.13686838e-13 C42.952381,1.13686838e-13 44,1.04761905 44,2.40952381 L44,41.5904762 C44,42.952381 42.952381,44 41.5904762,44 L30.3809524,44 L30.3809524,26.9238095 L36.1428571,26.9238095 L36.9809524,20.3238095 L30.3809524,20.3238095 L30.3809524,16.1333333 C30.3809524,14.247619 30.9047619,12.8857143 33.6285714,12.8857143 L37.1904762,12.8857143 L37.1904762,6.91428571 C36.5619048,6.80952381 34.4666667,6.7047619 32.0571429,6.7047619 C27.0285714,6.7047619 23.4666667,9.84761905 23.4666667,15.5047619 L23.4666667,20.4285714 L17.8095238,20.4285714 L17.8095238,27.0285714 L23.5714286,27.0285714 L23.5714286,44 L23.4666667,44 Z" id="Facebook"></path>
        </g>
    </g>
</svg>