<?xml version="1.0" encoding="UTF-8"?>
<svg width="48px" height="47px" viewBox="0 0 48 47" version="1.1" xmlns="http://www.w3.org/2000/svg" xmlns:xlink="http://www.w3.org/1999/xlink">
    <!-- Generator: Sketch 54.1 (76490) - https://sketchapp.com -->
    <title>Path</title>
    <desc>Created with Sketch.</desc>
    <g id="Page-1" stroke="none" stroke-width="1" fill="none" fill-rule="evenodd">
        <path d="M44.7805612,11.9530996 C42.6344146,8.27593001 39.7233038,5.36470975 36.0464626,3.21878207 C32.3690742,1.07274493 28.3544622,-3.55271368e-15 23.9997811,-3.55271368e-15 C19.6456472,-3.55271368e-15 15.6297219,1.07307329 11.9530996,3.21878207 C8.27593001,5.36460029 5.36492865,8.27593001 3.21878207,11.9530996 C1.07296384,15.6301597 0,19.6455378 0,23.9991244 C0,29.2287696 1.52576925,33.9314006 4.57807391,38.1082213 C7.63005021,42.2853703 11.5727518,45.1757946 16.4058502,46.7798224 C16.9684366,46.8842402 17.3849038,46.8107975 17.6556895,46.561355 C17.9265847,46.3115842 18.0618681,45.9987687 18.0618681,45.6242219 C18.0618681,45.5617244 18.0565049,44.9994664 18.0461069,43.9367911 C18.0353806,42.8741158 18.0303457,41.9470523 18.0303457,41.1560384 L17.3115705,41.2803765 C16.8532925,41.3643267 16.2751638,41.3998988 15.5771846,41.3898291 C14.8795337,41.3800878 14.1552859,41.3069735 13.4054261,41.1710334 C12.655238,41.0362972 11.9574777,40.72381 11.3115979,40.2342286 C10.6660464,39.7446471 10.2077684,39.1038021 9.93687321,38.3126787 L9.62438604,37.5935751 C9.41609774,37.1148295 9.08817775,36.5829993 8.64018826,36.0000547 C8.19219877,35.4165629 7.73917445,35.0210012 7.28089642,34.8127129 L7.06210067,34.6560862 C6.91630981,34.5519968 6.78102639,34.4264547 6.65592207,34.2807733 C6.5309272,34.1350919 6.43734523,33.989301 6.37484779,33.8432912 C6.31224091,33.697172 6.36412144,33.5773214 6.53103665,33.4833016 C6.69795187,33.3892819 6.99960323,33.3436401 7.43730418,33.3436401 L8.06205962,33.4370032 C8.47874567,33.5205155 8.99415797,33.769958 9.60895322,34.186863 C10.2234201,34.6034395 10.7285439,35.145011 11.1244339,35.8113584 C11.6038363,36.6657454 12.1814177,37.3167695 12.8588198,37.764759 C13.5356747,38.2127485 14.2181117,38.4363602 14.905474,38.4363602 C15.5928363,38.4363602 16.1865072,38.3842607 16.6867056,38.2806091 C17.1863567,38.1764102 17.6551422,38.0197836 18.0928432,37.8116047 C18.2803355,36.4152084 18.7908224,35.3424635 19.6238661,34.5926037 C18.4365243,34.4678278 17.3690331,34.2798977 16.4208452,34.0300174 C15.4732046,33.7798087 14.4939322,33.3737396 13.4836847,32.8107154 C12.47289,32.2484574 11.6343736,31.5502593 10.9679167,30.717325 C10.3013504,29.8839529 9.75430628,28.7898647 9.32755059,27.4360455 C8.90057599,26.081679 8.68703397,24.5193526 8.68703397,22.7486284 C8.68703397,20.2273878 9.51011752,18.0818979 11.1559563,16.3109548 C10.3849722,14.4154547 10.4577581,12.2905419 11.3745331,9.9364354 C11.9787115,9.74872419 12.8746905,9.88958969 14.0620323,10.3581563 C15.249593,10.8269418 16.1190844,11.2285233 16.6713822,11.5614782 C17.2236801,11.8943235 17.6661969,12.1763829 17.9995896,12.4051388 C19.9374478,11.8636768 21.9372563,11.5928911 23.9995622,11.5928911 C26.0618681,11.5928911 28.0621144,11.8636768 30.0000821,12.4051388 L31.1875333,11.6554979 C31.9995622,11.1552996 32.9584764,10.6969121 34.0619775,10.280226 C35.1661354,9.86375888 36.0104527,9.74905255 36.594054,9.93676376 C37.5311872,12.2909797 37.6146995,14.4157831 36.8434965,16.3112832 C38.4892258,18.0822263 39.3126377,20.2282634 39.3126377,22.7489568 C39.3126377,24.5196809 39.0983295,26.0869327 38.6720116,27.4516972 C38.2451465,28.8166806 37.6933959,29.9096742 37.016541,30.7329767 C36.33892,31.5561697 35.4950404,32.2488952 34.4847929,32.8110438 C33.4743265,33.3736301 32.4947258,33.7796993 31.5470851,34.0299079 C30.5990067,34.2801166 29.5315155,34.4681561 28.3441737,34.593151 C29.4270977,35.5302842 29.9686692,37.0095361 29.9686692,39.03025 L29.9686692,45.6233462 C29.9686692,45.997893 30.0989178,46.3105991 30.3596339,46.5604794 C30.6200216,46.8099219 31.031235,46.8833646 31.5938214,46.7788373 C36.4275766,45.1750284 40.3702781,42.2844947 43.422145,38.1073456 C46.4736835,33.930525 48,29.227894 48,23.9982488 C47.9989055,19.6452094 46.9253944,15.6301597 44.7805612,11.9530996 Z" id="Path" fill="#434343" fill-rule="nonzero"></path>
    </g>
</svg>