<?xml version="1.0" encoding="UTF-8"?>
<svg width="44px" height="44px" viewBox="0 0 44 44" version="1.1" xmlns="http://www.w3.org/2000/svg" xmlns:xlink="http://www.w3.org/1999/xlink">
    <!-- Generator: Sketch 51.2 (57519) - http://www.bohemiancoding.com/sketch -->
    <title>ig</title>
    <desc>Created with Sketch.</desc>
    <defs></defs>
    <g id="Mobile" stroke="none" stroke-width="1" fill="none" fill-rule="evenodd">
        <g id="ig" fill="#464646" fill-rule="nonzero">
            <path d="M22,0 C28,0 28.7,0 31.1,0.1 C33.4,0.2 35,0.6 36.4,1.1 C37.8,1.7 39.1,2.4 40.3,3.6 C41.5,4.8 42.3,6.1 42.8,7.5 C43.3,8.9 43.7,10.5 43.8,12.8 C43.9,15.1 43.9,15.9 43.9,21.9 C43.9,27.9 43.9,28.6 43.8,31 C43.7,33.3 43.3,34.9 42.8,36.3 C42.2,37.7 41.5,39 40.3,40.2 C39.1,41.4 37.8,42.2 36.4,42.7 C35,43.2 33.4,43.6 31.1,43.7 C28.8,43.8 28,43.8 22,43.8 C16,43.8 15.3,43.8 12.9,43.7 C10.6,43.6 9,43.2 7.6,42.7 C6.2,42.1 4.9,41.4 3.7,40.2 C2.5,39 1.7,37.7 1.2,36.3 C0.7,34.9 0.3,33.3 0.2,31 C0.1,28.7 0.1,27.9 0.1,21.9 C0.1,15.9 0.1,15.2 0.2,12.8 C0.3,10.5 0.7,8.9 1.2,7.5 C1.8,6.1 2.5,4.8 3.7,3.6 C4.9,2.4 6.2,1.6 7.6,1.1 C9,0.6 10.6,0.2 12.9,0.1 C15.3,0 16,0 22,0 Z M22,4 C16.1,4 15.4,4 13.1,4.1 C11,4.2 9.8,4.6 9,4.9 C8,5.3 7.2,5.8 6.5,6.5 C5.7,7.3 5.3,8 4.9,9 C4.6,9.8 4.2,10.9 4.1,13.1 C4,15.4 4,16.1 4,22 C4,27.9 4,28.6 4.1,30.9 C4.2,33 4.6,34.2 4.9,35 C5.3,36 5.8,36.8 6.5,37.5 C7.3,38.3 8,38.7 9,39.1 C9.8,39.4 10.9,39.8 13.1,39.9 C15.4,40 16.1,40 22,40 C27.9,40 28.6,40 30.9,39.9 C33,39.8 34.2,39.4 35,39.1 C36,38.7 36.8,38.2 37.5,37.5 C38.3,36.7 38.7,36 39.1,35 C39.4,34.2 39.8,33.1 39.9,30.9 C40,28.6 40,27.9 40,22 C40,16.1 40,15.4 39.9,13.1 C39.8,11 39.4,9.8 39.1,9 C38.7,8 38.2,7.2 37.5,6.5 C36.7,5.7 36,5.3 35,4.9 C34.2,4.6 33.1,4.2 30.9,4.1 C28.6,4 27.9,4 22,4 Z M22.5,11 C28.9,11 34,16.1 34,22.5 C34,28.9 28.9,34 22.5,34 C16.1,34 11,28.9 11,22.5 C11,16.1 16.1,11 22.5,11 Z M22.5,30 C26.6,30 30,26.6 30,22.5 C30,18.4 26.6,15 22.5,15 C18.4,15 15,18.4 15,22.5 C15,26.6 18.4,30 22.5,30 Z M36,10.5 C36,11.9 34.9,13 33.5,13 C32.1,13 31,11.9 31,10.5 C31,9.1 32.1,8 33.5,8 C34.9,8 36,9.1 36,10.5 Z" id="Instagram"></path>
        </g>
    </g>
</svg>