<?xml version="1.0" encoding="UTF-8"?>
<svg width="44px" height="35px" viewBox="0 0 44 35" version="1.1" xmlns="http://www.w3.org/2000/svg" xmlns:xlink="http://www.w3.org/1999/xlink">
    <!-- Generator: Sketch 51.2 (57519) - http://www.bohemiancoding.com/sketch -->
    <title>medium</title>
    <desc>Created with Sketch.</desc>
    <defs></defs>
    <g id="Mobile" stroke="none" stroke-width="1" fill="none" fill-rule="evenodd">
        <g id="medium" fill="#464646" fill-rule="nonzero">
            <path d="M5.7,7.5 C5.8,7 5.6,6.5 5.2,6.1 L1.2,1.3 L1.2,0.5 L13.6,0.5 L23.2,21.6 L31.6,0.5 L43.4,0.5 L43.4,1.2 L40,4.5 C39.7,4.7 39.6,5.1 39.6,5.5 L39.6,29.6 C39.5,30 39.7,30.3 40,30.6 L43.3,33.9 L43.3,34.6 L26.5,34.6 L26.5,33.9 L30,30.5 C30.3,30.2 30.3,30.1 30.3,29.5 L30.3,10 L20.7,34.4 L19.4,34.4 L8.2,10 L8.2,26.4 C8.1,27.1 8.3,27.8 8.8,28.3 L13.3,33.8 L13.3,34.5 L0.6,34.5 L0.6,33.8 L5.1,28.3 C5.6,27.8 5.8,27.1 5.7,26.4 L5.7,7.5 Z" id="Shape"></path>
        </g>
    </g>
</svg>