<?xml version="1.0" encoding="UTF-8"?>
<svg width="48px" height="39px" viewBox="0 0 48 39" version="1.1" xmlns="http://www.w3.org/2000/svg" xmlns:xlink="http://www.w3.org/1999/xlink">
    <!-- Generator: Sketch 51.2 (57519) - http://www.bohemiancoding.com/sketch -->
    <title>icons8-twitter</title>
    <desc>Created with Sketch.</desc>
    <defs></defs>
    <g id="Mobile" stroke="none" stroke-width="1" fill="none" fill-rule="evenodd">
        <g id="icons8-twitter" fill="#434343" fill-rule="nonzero">
            <path d="M47.7331735,4.75240431 C45.9951932,5.52403938 44.1274043,6.04327015 42.1658658,6.28125046 C44.1634615,5.07692308 45.7067317,3.180288 46.4278855,0.915865846 C44.5528855,2.02644185 42.4759625,2.83413415 40.2692308,3.26682646 C38.5024043,1.38461538 35.9855778,0.209134154 33.194712,0.209134154 C27.8437495,0.209134154 23.5024043,4.55048123 23.5024043,9.90144185 C23.5024043,10.6586548 23.5889428,11.4014418 23.7548086,12.1081735 C15.6995188,11.7043274 8.56009662,7.83894277 3.77884615,1.97596246 C2.94230769,3.41105723 2.46634708,5.07692308 2.46634708,6.85817354 C2.46634708,10.2187495 4.17548123,13.1826923 6.77884615,14.9206726 C5.18509662,14.8701932 3.69230769,14.4375009 2.38701969,13.7091342 C2.38701969,13.7524043 2.38701969,13.7884615 2.38701969,13.8317317 C2.38701969,18.5264418 5.72596246,22.4423077 10.1610572,23.3365385 C9.34615385,23.5600966 8.49519323,23.6754812 7.60817354,23.6754812 C6.98076923,23.6754812 6.375,23.6177889 5.78365477,23.5024043 C7.01682646,27.3461538 10.5937495,30.1586548 14.8341342,30.2307692 C11.5240394,32.8341342 7.34134708,34.3774043 2.79807692,34.3774043 C2.01201969,34.3774043 1.24759569,34.3341342 0.490384615,34.2475957 C4.77403938,36.9951932 9.87259569,38.5961538 15.3461538,38.5961538 C33.1730769,38.5961538 42.9230769,23.8269231 42.9230769,11.0264418 C42.9230769,10.6009625 42.9158658,10.1826923 42.8942308,9.764424 C44.7908658,8.40865477 46.4350966,6.69951877 47.7331735,4.75240431" id="Shape"></path>
        </g>
    </g>
</svg>